<svg xmlns="http://www.w3.org/2000/svg" viewBox="0 0 180 220" width="180" height="220">
  <path d="M15 220 Q15 155 48 148 L90 165 L132 148 Q165 155 165 220Z" fill="#f0f4f8" stroke="#c9d4df" stroke-width="1.2"/>
  <path d="M90 165 L70 152 L60 185 L90 175Z" fill="#e2e8f0" stroke="#c9d4df" stroke-width="1"/>
  <path d="M90 165 L110 152 L120 185 L90 175Z" fill="#e2e8f0" stroke="#c9d4df" stroke-width="1"/>
  <path d="M70 152 L60 185 L90 175 L120 185 L110 152 L90 160Z" fill="#0891b2"/>
  <rect x="116" y="172" width="22" height="18" rx="2" fill="#e2e8f0" stroke="#c9d4df" stroke-width="1"/>
  <line x1="120" y1="176" x2="134" y2="176" stroke="#93a8c0" stroke-width="1"/>
  <line x1="128" y1="172" x2="126" y2="165" stroke="#94a3b8" stroke-width="1.5" stroke-linecap="round"/>
  <path d="M76 158 Q66 172 69 184 Q72 196 82 196 Q91 196 90 188" fill="none" stroke="#64748b" stroke-width="2" stroke-linecap="round"/>
  <circle cx="90" cy="187" r="4.5" fill="none" stroke="#64748b" stroke-width="2"/>
  <rect x="83" y="133" width="14" height="17" rx="6" fill="#c8a882"/>
  <ellipse cx="90" cy="100" rx="30" ry="38" fill="#c8a882"/>
  <ellipse cx="61" cy="102" rx="6" ry="8" fill="#c8a882"/>
  <ellipse cx="119" cy="102" rx="6" ry="8" fill="#c8a882"/>
  <path d="M62 84 Q64 62 90 58 Q116 62 118 84 Q112 68 90 66 Q68 68 62 84Z" fill="#1a1a1a"/>
  <ellipse cx="62" cy="86" rx="6" ry="9" fill="#1a1a1a"/>
  <ellipse cx="118" cy="86" rx="6" ry="9" fill="#1a1a1a"/>
  <path d="M72 90 Q80 87 87 90" fill="none" stroke="#1a1a1a" stroke-width="2" stroke-linecap="round"/>
  <path d="M93 90 Q100 87 108 90" fill="none" stroke="#1a1a1a" stroke-width="2" stroke-linecap="round"/>
  <ellipse cx="79" cy="98" rx="6" ry="5" fill="#fff"/>
  <circle cx="79" cy="98" r="3.2" fill="#2d1b0e"/>
  <circle cx="78" cy="97" r="1.1" fill="#fff"/>
  <ellipse cx="101" cy="98" rx="6" ry="5" fill="#fff"/>
  <circle cx="101" cy="98" r="3.2" fill="#2d1b0e"/>
  <circle cx="100" cy="97" r="1.1" fill="#fff"/>
  <path d="M87 107 Q90 114 93 107" fill="none" stroke="#a0846a" stroke-width="1.5" stroke-linecap="round"/>
  <path d="M79 120 Q90 130 101 120" fill="none" stroke="#8b6050" stroke-width="2" stroke-linecap="round"/>
  <path d="M74 118 Q90 135 106 118 Q106 138 90 140 Q74 138 74 118Z" fill="#a07850" fill-opacity="0.2"/>
  <ellipse cx="69" cy="112" rx="7" ry="5" fill="#d4956a" fill-opacity="0.18"/>
  <ellipse cx="111" cy="112" rx="7" ry="5" fill="#d4956a" fill-opacity="0.18"/>
  <rect x="116" y="176" width="20" height="12" rx="2" fill="#dbeafe" stroke="#93c5fd" stroke-width="0.8"/>
  <line x1="119" y1="180" x2="132" y2="180" stroke="#60a5fa" stroke-width="1.2"/>
  <line x1="119" y1="183" x2="129" y2="183" stroke="#93c5fd" stroke-width="0.8"/>
</svg>
