<svg xmlns="http://www.w3.org/2000/svg" viewBox="0 0 180 220" width="180" height="220">
  <path d="M10 220 Q10 155 45 148 L90 165 L135 148 Q170 155 170 220Z" fill="#f0f4f8" stroke="#c9d4df" stroke-width="1.2"/>
  <path d="M90 165 L68 152 L58 185 L90 175Z" fill="#e2e8f0" stroke="#c9d4df" stroke-width="1"/>
  <path d="M90 165 L112 152 L122 185 L90 175Z" fill="#e2e8f0" stroke="#c9d4df" stroke-width="1"/>
  <path d="M68 152 L58 185 L90 175 L122 185 L112 152 L90 160Z" fill="#1e40af"/>
  <rect x="118" y="172" width="22" height="18" rx="2" fill="#e2e8f0" stroke="#c9d4df" stroke-width="1"/>
  <line x1="122" y1="176" x2="136" y2="176" stroke="#93a8c0" stroke-width="1"/>
  <path d="M74 158 Q64 172 67 184 Q70 196 80 196 Q89 196 90 188" fill="none" stroke="#64748b" stroke-width="2" stroke-linecap="round"/>
  <circle cx="90" cy="187" r="4.5" fill="none" stroke="#64748b" stroke-width="2"/>
  <rect x="82" y="132" width="16" height="18" rx="7" fill="#b5845a"/>
  <ellipse cx="90" cy="100" rx="36" ry="40" fill="#b5845a"/>
  <ellipse cx="55" cy="102" rx="7" ry="9" fill="#b5845a"/>
  <ellipse cx="125" cy="102" rx="7" ry="9" fill="#b5845a"/>
  <path d="M56 80 Q58 58 90 54 Q122 58 124 80 Q118 64 90 62 Q62 64 56 80Z" fill="#1a1a1a"/>
  <ellipse cx="56" cy="82" rx="7" ry="10" fill="#1a1a1a"/>
  <ellipse cx="124" cy="82" rx="7" ry="10" fill="#1a1a1a"/>
  <path d="M70 88 Q78 85 85 88" fill="none" stroke="#1a1a1a" stroke-width="2" stroke-linecap="round"/>
  <path d="M95 88 Q102 85 110 88" fill="none" stroke="#1a1a1a" stroke-width="2" stroke-linecap="round"/>
  <rect x="67" y="93" width="20" height="13" rx="4" fill="none" stroke="#222" stroke-width="2.2"/>
  <rect x="93" y="93" width="20" height="13" rx="4" fill="none" stroke="#222" stroke-width="2.2"/>
  <line x1="87" y1="99" x2="93" y2="99" stroke="#222" stroke-width="2"/>
  <line x1="55" y1="99" x2="67" y2="99" stroke="#222" stroke-width="1.8"/>
  <line x1="113" y1="99" x2="124" y2="99" stroke="#222" stroke-width="1.8"/>
  <rect x="68" y="94" width="18" height="11" rx="3" fill="#bfdbfe" fill-opacity="0.3"/>
  <rect x="94" y="94" width="18" height="11" rx="3" fill="#bfdbfe" fill-opacity="0.3"/>
  <circle cx="77" cy="100" r="3" fill="#2d1b0e"/>
  <circle cx="76" cy="99" r="1" fill="#fff"/>
  <circle cx="103" cy="100" r="3" fill="#2d1b0e"/>
  <circle cx="102" cy="99" r="1" fill="#fff"/>
  <path d="M87 107 Q90 114 93 107" fill="none" stroke="#9a6a3a" stroke-width="1.5" stroke-linecap="round"/>
  <path d="M78 120 Q90 130 102 120" fill="none" stroke="#7a4a2a" stroke-width="2" stroke-linecap="round"/>
  <ellipse cx="68" cy="115" rx="8" ry="5" fill="#c97050" fill-opacity="0.15"/>
  <ellipse cx="112" cy="115" rx="8" ry="5" fill="#c97050" fill-opacity="0.15"/>
  <rect x="118" y="176" width="20" height="12" rx="2" fill="#dbeafe" stroke="#93c5fd" stroke-width="0.8"/>
  <line x1="121" y1="180" x2="134" y2="180" stroke="#60a5fa" stroke-width="1.2"/>
  <line x1="121" y1="183" x2="131" y2="183" stroke="#93c5fd" stroke-width="0.8"/>
</svg>
